<svg width="14" height="15" viewBox="0 0 14 15" fill="none" xmlns="http://www.w3.org/2000/svg">
<path fill-rule="evenodd" clip-rule="evenodd" d="M6.99694 0.508812C6.31795 0.499327 5.64386 0.624869 5.01381 0.878143C4.38376 1.13142 3.81033 1.50737 3.32683 1.98417C2.84332 2.46096 2.45939 3.02909 2.19734 3.65554C1.93529 4.28198 1.80035 4.95426 1.80035 5.63331C1.80035 6.31236 1.93529 6.98464 2.19734 7.61109C2.45939 8.23754 2.84332 8.80566 3.32683 9.28246C3.81033 9.75925 4.38376 10.1352 5.01381 10.3885C5.64386 10.6418 6.31795 10.7673 6.99694 10.7578C8.35617 10.7578 9.65973 10.2179 10.6209 9.25673C11.582 8.29561 12.1219 6.99205 12.1219 5.63281C12.1219 4.27358 11.582 2.97001 10.6209 2.00889C9.65973 1.04777 8.35617 0.508812 6.99694 0.508812ZM7.19994 2.93181L7.88294 4.30581C7.89777 4.34072 7.92177 4.37096 7.95241 4.39332C7.98305 4.41568 8.01917 4.42933 8.05694 4.43281L9.57294 4.66281C9.61635 4.66836 9.65728 4.68618 9.69091 4.71418C9.72455 4.74218 9.7495 4.77919 9.76284 4.82088C9.77617 4.86256 9.77734 4.90719 9.76619 4.94951C9.75505 4.99183 9.73207 5.0301 9.69994 5.05981L8.58194 6.12381C8.56512 6.15554 8.55634 6.1909 8.55634 6.22681C8.55634 6.26272 8.56512 6.29808 8.58194 6.32981L8.79594 7.83781C8.80494 7.88123 8.8012 7.92633 8.78516 7.96768C8.76912 8.00902 8.74148 8.04485 8.70555 8.07085C8.66962 8.09684 8.62694 8.1119 8.58266 8.1142C8.53837 8.1165 8.49436 8.10595 8.45594 8.08381L7.10594 7.36981C7.07091 7.35393 7.03289 7.34571 6.99444 7.34571C6.95598 7.34571 6.91796 7.35393 6.88294 7.36981L5.53294 8.08381C5.49451 8.10595 5.4505 8.1165 5.40621 8.1142C5.36193 8.1119 5.31925 8.09684 5.28332 8.07085C5.2474 8.04485 5.21975 8.00902 5.20371 7.96768C5.18767 7.92633 5.18393 7.88123 5.19294 7.83781L5.44594 6.32981C5.45695 6.29486 5.45907 6.25771 5.45208 6.22174C5.44509 6.18576 5.42923 6.1521 5.40594 6.12381L4.28694 5.05181C4.25688 5.0218 4.23572 4.98406 4.2258 4.94276C4.21589 4.90146 4.2176 4.85822 4.23075 4.81784C4.2439 4.77745 4.26798 4.7415 4.30031 4.71396C4.33264 4.68642 4.37197 4.66837 4.41394 4.66181L5.93094 4.44081C5.9687 4.43733 6.00482 4.42368 6.03546 4.40132C6.0661 4.37896 6.09011 4.34872 6.10494 4.31381L6.78794 2.93981C6.80612 2.90081 6.83487 2.8677 6.87093 2.84423C6.907 2.82076 6.94892 2.80787 6.99194 2.80704C7.03496 2.80621 7.07735 2.81746 7.1143 2.83951C7.15124 2.86157 7.18126 2.89355 7.20094 2.93181H7.19994ZM12.2999 9.16981C11.4371 10.4604 10.1345 11.3933 8.63494 11.7948L10.0469 14.2408C10.0963 14.3265 10.17 14.3956 10.2587 14.4393C10.3473 14.4831 10.447 14.4996 10.545 14.4868C10.6431 14.4739 10.7351 14.4323 10.8095 14.3672C10.8839 14.302 10.9373 14.2163 10.9629 14.1208L11.4729 12.2218L13.3709 12.7308C13.4664 12.7563 13.5673 12.7529 13.6609 12.7211C13.7545 12.6892 13.8365 12.6304 13.8967 12.5519C13.9568 12.4735 13.9923 12.379 13.9988 12.2804C14.0053 12.1818 13.9823 12.0834 13.9329 11.9978L12.2999 9.16981ZM5.36394 11.7958C3.86342 11.3974 2.55966 10.4655 1.69694 9.17481L0.0669358 11.9978C0.0175335 12.0834 -0.00538774 12.1818 0.00106784 12.2804C0.00752341 12.379 0.0430661 12.4735 0.103206 12.5519C0.163345 12.6304 0.245384 12.6892 0.338957 12.7211C0.432529 12.7529 0.533439 12.7563 0.628936 12.7308L2.52794 12.2218L3.03694 14.1208C3.0626 14.2163 3.116 14.302 3.19039 14.3672C3.26478 14.4323 3.35681 14.4739 3.45485 14.4868C3.55289 14.4996 3.65254 14.4831 3.7412 14.4393C3.82985 14.3956 3.90354 14.3265 3.95294 14.2408L5.36394 11.7958Z" fill="url(#paint0_radial_1257_14848)"/>
<defs>
<radialGradient id="paint0_radial_1257_14848" cx="0" cy="0" r="1" gradientUnits="userSpaceOnUse" gradientTransform="translate(14.0007 13.8825) rotate(-137.398) scale(17.9631 19.3195)">
<stop stop-color="#FF6F47"/>
<stop offset="1" stop-color="#FFCD0F"/>
</radialGradient>
</defs>
</svg>
