<svg width="14" height="14" viewBox="0 0 14 14" fill="none" xmlns="http://www.w3.org/2000/svg">
<path fill-rule="evenodd" clip-rule="evenodd" d="M6.99694 0.0088125C6.31795 -0.000672635 5.64386 0.124869 5.01381 0.378143C4.38376 0.631417 3.81033 1.00737 3.32683 1.48417C2.84332 1.96096 2.45939 2.52909 2.19734 3.15554C1.93529 3.78198 1.80035 4.45426 1.80035 5.13331C1.80035 5.81236 1.93529 6.48464 2.19734 7.11109C2.45939 7.73754 2.84332 8.30566 3.32683 8.78246C3.81033 9.25925 4.38376 9.63521 5.01381 9.88848C5.64386 10.1418 6.31795 10.2673 6.99694 10.2578C8.35617 10.2578 9.65973 9.71786 10.6209 8.75673C11.582 7.79561 12.1219 6.49205 12.1219 5.13281C12.1219 3.77358 11.582 2.47001 10.6209 1.50889C9.65973 0.547766 8.35617 0.0088125 6.99694 0.0088125ZM7.19994 2.43181L7.88294 3.80581C7.89777 3.84072 7.92177 3.87096 7.95241 3.89332C7.98305 3.91568 8.01917 3.92933 8.05694 3.93281L9.57294 4.16281C9.61635 4.16836 9.65728 4.18618 9.69091 4.21418C9.72455 4.24218 9.7495 4.27919 9.76284 4.32088C9.77617 4.36256 9.77734 4.40719 9.76619 4.44951C9.75505 4.49183 9.73207 4.5301 9.69994 4.55981L8.58194 5.62381C8.56512 5.65554 8.55634 5.6909 8.55634 5.72681C8.55634 5.76272 8.56512 5.79808 8.58194 5.82981L8.79594 7.33781C8.80494 7.38123 8.8012 7.42633 8.78516 7.46768C8.76912 7.50902 8.74148 7.54485 8.70555 7.57085C8.66962 7.59684 8.62694 7.6119 8.58266 7.6142C8.53837 7.6165 8.49436 7.60595 8.45594 7.58381L7.10594 6.86981C7.07091 6.85393 7.03289 6.84571 6.99444 6.84571C6.95598 6.84571 6.91796 6.85393 6.88294 6.86981L5.53294 7.58381C5.49451 7.60595 5.4505 7.6165 5.40621 7.6142C5.36193 7.6119 5.31925 7.59684 5.28332 7.57085C5.2474 7.54485 5.21975 7.50902 5.20371 7.46768C5.18767 7.42633 5.18393 7.38123 5.19294 7.33781L5.44594 5.82981C5.45695 5.79486 5.45907 5.75771 5.45208 5.72174C5.44509 5.68576 5.42923 5.6521 5.40594 5.62381L4.28694 4.55181C4.25688 4.5218 4.23572 4.48406 4.2258 4.44276C4.21589 4.40146 4.2176 4.35822 4.23075 4.31784C4.2439 4.27745 4.26798 4.2415 4.30031 4.21396C4.33264 4.18642 4.37197 4.16837 4.41394 4.16181L5.93094 3.94081C5.9687 3.93733 6.00482 3.92368 6.03546 3.90132C6.0661 3.87896 6.09011 3.84872 6.10494 3.81381L6.78794 2.43981C6.80612 2.40081 6.83487 2.3677 6.87093 2.34423C6.907 2.32076 6.94892 2.30787 6.99194 2.30704C7.03496 2.30621 7.07735 2.31746 7.1143 2.33951C7.15124 2.36157 7.18126 2.39355 7.20094 2.43181H7.19994ZM12.2999 8.66981C11.4371 9.96036 10.1345 10.8933 8.63494 11.2948L10.0469 13.7408C10.0963 13.8265 10.17 13.8956 10.2587 13.9393C10.3473 13.9831 10.447 13.9996 10.545 13.9868C10.6431 13.9739 10.7351 13.9323 10.8095 13.8672C10.8839 13.802 10.9373 13.7163 10.9629 13.6208L11.4729 11.7218L13.3709 12.2308C13.4664 12.2563 13.5673 12.2529 13.6609 12.2211C13.7545 12.1892 13.8365 12.1304 13.8967 12.0519C13.9568 11.9735 13.9923 11.879 13.9988 11.7804C14.0053 11.6818 13.9823 11.5834 13.9329 11.4978L12.2999 8.66981ZM5.36394 11.2958C3.86342 10.8974 2.55966 9.96554 1.69694 8.67481L0.0669358 11.4978C0.0175335 11.5834 -0.00538774 11.6818 0.00106784 11.7804C0.00752341 11.879 0.0430661 11.9735 0.103206 12.0519C0.163345 12.1304 0.245384 12.1892 0.338957 12.2211C0.432529 12.2529 0.533439 12.2563 0.628936 12.2308L2.52794 11.7218L3.03694 13.6208C3.0626 13.7163 3.116 13.802 3.19039 13.8672C3.26478 13.9323 3.35681 13.9739 3.45485 13.9868C3.55289 13.9996 3.65254 13.9831 3.7412 13.9393C3.82985 13.8956 3.90354 13.8265 3.95294 13.7408L5.36394 11.2958Z" fill="url(#paint0_radial_1257_15058)"/>
<defs>
<radialGradient id="paint0_radial_1257_15058" cx="0" cy="0" r="1" gradientUnits="userSpaceOnUse" gradientTransform="translate(14.0007 13.3825) rotate(-137.398) scale(17.9631 19.3195)">
<stop stop-color="#B58B71"/>
<stop offset="1" stop-color="#BE8443"/>
</radialGradient>
</defs>
</svg>
